<svg width="550" height="200" xmlns="http://www.w3.org/2000/svg" xml:space="preserve" version="1.1">

 <g>
  <title>Layer 1</title>
  <path id="svg_1" d="m490.2,54.6998l-430.8,0c-25.7,0 -45.4,19.7 -45.4,45.4s19.7,45.4 45.4,45.4l430.9,0c25.7,0 45.4,-19.7 45.4,-45.4s-19.8,-45.4 -45.5,-45.4zm0,83.2l-430.8,0c-21.4,0 -37.8,-16.4 -37.8,-37.8c0,-21.4 16.4,-37.8 37.8,-37.8l430.9,0c21.4,0 37.8,16.4 37.8,37.8c-0.1,21.4 -16.4,37.8 -37.9,37.8z"/>
  <g id="svg_2">
   <path id="svg_3" d="m274.8,109.4998l221.1,0c1.1,0 1.9,-0.8 1.9,-1.9l0,-15.1c0,-1.1 -0.8,-1.9 -1.9,-1.9l-442.2,0c-1.1,0 -1.9,0.8 -1.9,1.9l0,15.1c0,1.1 0.8,1.9 1.9,1.9l221.1,0z"/>
   <g id="svg_4">
    <rect id="svg_5" stroke-miterlimit="10" stroke="#000000" fill="#FFFF00" height="7.6" width="24.6" class="st0" y="87.7998" x="394.8"/>
    <rect id="svg_6" stroke-miterlimit="10" stroke="#000000" fill="#FFFF00" height="7.6" width="24.6" class="st0" y="87.7998" x="357"/>
    <rect id="svg_7" stroke-miterlimit="10" stroke="#000000" fill="#FFFF00" height="7.6" width="24.6" class="st0" y="87.7998" x="470.4"/>
    <rect id="svg_8" stroke-miterlimit="10" stroke="#000000" fill="#FFFF00" height="7.6" width="24.6" class="st0" y="87.7998" x="432.6"/>
    <rect id="svg_9" stroke-miterlimit="10" stroke="#000000" fill="#FFFF00" height="7.6" width="24.6" class="st0" y="87.7998" x="243.6"/>
    <rect id="svg_10" stroke-miterlimit="10" stroke="#000000" fill="#FFFF00" height="7.6" width="24.6" class="st0" y="87.7998" x="205.8"/>
    <rect id="svg_11" stroke-miterlimit="10" stroke="#000000" fill="#FFFF00" height="7.6" width="24.6" class="st0" y="87.7998" x="319.2"/>
    <rect id="svg_12" stroke-miterlimit="10" stroke="#000000" fill="#FFFF00" height="7.6" width="24.6" class="st0" y="87.7998" x="281.4"/>
    <rect id="svg_13" stroke-miterlimit="10" stroke="#000000" fill="#FFFF00" height="7.6" width="24.6" class="st0" y="87.7998" x="92.4"/>
    <rect id="svg_14" stroke-miterlimit="10" stroke="#000000" fill="#FFFF00" height="7.6" width="24.6" class="st0" y="87.7998" x="54.6"/>
    <rect id="svg_15" stroke-miterlimit="10" stroke="#000000" fill="#FFFF00" height="7.6" width="24.6" class="st0" y="87.7998" x="168"/>
    <rect id="svg_16" stroke-miterlimit="10" stroke="#000000" fill="#FFFF00" height="7.6" width="24.6" class="st0" y="87.7998" x="130.2"/>
   </g>
   <g id="svg_17">
    <rect id="svg_18" stroke-miterlimit="10" stroke="#000000" fill="#FFFF00" height="7.6" width="24.6" class="st0" y="104.7998" x="394.8"/>
    <rect id="svg_19" stroke-miterlimit="10" stroke="#000000" fill="#FFFF00" height="7.6" width="24.6" class="st0" y="104.7998" x="357"/>
    <rect id="svg_20" stroke-miterlimit="10" stroke="#000000" fill="#FFFF00" height="7.6" width="24.6" class="st0" y="104.7998" x="470.4"/>
    <rect id="svg_21" stroke-miterlimit="10" stroke="#000000" fill="#FFFF00" height="7.6" width="24.6" class="st0" y="104.7998" x="432.6"/>
    <rect id="svg_22" stroke-miterlimit="10" stroke="#000000" fill="#FFFF00" height="7.6" width="24.6" class="st0" y="104.7998" x="243.6"/>
    <rect id="svg_23" stroke-miterlimit="10" stroke="#000000" fill="#FFFF00" height="7.6" width="24.6" class="st0" y="104.7998" x="205.8"/>
    <rect id="svg_24" stroke-miterlimit="10" stroke="#000000" fill="#FFFF00" height="7.6" width="24.6" class="st0" y="104.7998" x="319.2"/>
    <rect id="svg_25" stroke-miterlimit="10" stroke="#000000" fill="#FFFF00" height="7.6" width="24.6" class="st0" y="104.7998" x="281.4"/>
    <rect id="svg_26" stroke-miterlimit="10" stroke="#000000" fill="#FFFF00" height="7.6" width="24.6" class="st0" y="104.7998" x="92.4"/>
    <rect id="svg_27" stroke-miterlimit="10" stroke="#000000" fill="#FFFF00" height="7.6" width="24.6" class="st0" y="104.7998" x="54.6"/>
    <rect id="svg_28" stroke-miterlimit="10" stroke="#000000" fill="#FFFF00" height="7.6" width="24.6" class="st0" y="104.7998" x="168"/>
    <rect id="svg_29" stroke-miterlimit="10" stroke="#000000" fill="#FFFF00" height="7.6" width="24.6" class="st0" y="104.7998" x="130.2"/>
   </g>
  </g>
  <g id="svg_30">
   <text x="-0.2" y="-23.5002" id="svg_31" font-size="10px" font-weight="bold" font-family="Liberation Sans,sans-serif" class="st1 st2" transform="matrix(1 0 0 1 60.7342 38.5002)">A1</text>
   <text x="-0.2" y="-23.5002" id="svg_32" font-size="10px" font-weight="bold" font-family="Liberation Sans,sans-serif" class="st1 st2" transform="matrix(1 0 0 1 98.5296 38.5002)">A2</text>
   <text x="-0.2" y="-23.5002" id="svg_33" font-size="10px" font-weight="bold" font-family="Liberation Sans,sans-serif" class="st1 st2" transform="matrix(1 0 0 1 136.325 38.5002)">A3</text>
   <text x="-0.2" y="-23.5002" id="svg_34" font-size="10px" font-weight="bold" font-family="Liberation Sans,sans-serif" class="st1 st2" transform="matrix(1 0 0 1 174.12 38.5002)">A4</text>
   <text x="-0.2" y="-23.5002" id="svg_35" font-size="10px" font-weight="bold" font-family="Liberation Sans,sans-serif" class="st1 st2" transform="matrix(1 0 0 1 211.934 38.5002)">A5</text>
   <text x="-0.2" y="-23.5002" id="svg_36" font-size="10px" font-weight="bold" font-family="Liberation Sans,sans-serif" class="st1 st2" transform="matrix(1 0 0 1 249.711 38.5002)">A6</text>
   <text x="-0.2" y="-23.5002" id="svg_37" font-size="10px" font-weight="bold" font-family="Liberation Sans,sans-serif" class="st1 st2" transform="matrix(1 0 0 1 287.506 38.5002)">A7</text>
   <text x="-0.2" y="-23.5002" id="svg_38" font-size="10px" font-weight="bold" font-family="Liberation Sans,sans-serif" class="st1 st2" transform="matrix(1 0 0 1 325.302 38.5002)">A8</text>
   <text x="-0.2" y="-23.5002" id="svg_39" font-size="10px" font-weight="bold" font-family="Liberation Sans,sans-serif" class="st1 st2" transform="matrix(1 0 0 1 363.097 38.5002)">A9</text>
   <text x="-0.2" y="-23.5002" id="svg_40" font-size="10px" font-weight="bold" font-family="Liberation Sans,sans-serif" class="st1 st2" transform="matrix(1 0 0 1 398.111 38.5002)">A10</text>
   <text x="-0.2" y="-23.5002" id="svg_41" font-size="10px" font-weight="bold" font-family="Liberation Sans,sans-serif" class="st1 st2" transform="matrix(1 0 0 1 436.182 38.5002)">A11</text>
   <text x="-0.2" y="-23.5002" id="svg_42" font-size="10px" font-weight="bold" font-family="Liberation Sans,sans-serif" class="st1 st2" transform="matrix(1 0 0 1 473.702 38.5002)">A12</text>
  </g>
  <g id="svg_43">
   <text x="-0.2" y="-23.5002" id="svg_44" font-size="10px" font-weight="bold" font-family="Liberation Sans,sans-serif" class="st1 st2" transform="matrix(1 0 0 1 57.9535 216.137)">B12</text>
   <text x="-0.2" y="-23.5002" id="svg_45" font-size="10px" font-weight="bold" font-family="Liberation Sans,sans-serif" class="st1 st2" transform="matrix(1 0 0 1 476.482 216.137)">B1</text>
   <text x="-0.2" y="-23.5002" id="svg_46" font-size="10px" font-weight="bold" font-family="Liberation Sans,sans-serif" class="st1 st2" transform="matrix(1 0 0 1 438.687 216.137)">B2</text>
   <text x="-0.2" y="-23.5002" id="svg_47" font-size="10px" font-weight="bold" font-family="Liberation Sans,sans-serif" class="st1 st2" transform="matrix(1 0 0 1 400.892 216.137)">B3</text>
   <text x="-0.2" y="-23.5002" id="svg_48" font-size="10px" font-weight="bold" font-family="Liberation Sans,sans-serif" class="st1 st2" transform="matrix(1 0 0 1 363.097 216.137)">B4</text>
   <text x="-0.2" y="-23.5002" id="svg_49" font-size="10px" font-weight="bold" font-family="Liberation Sans,sans-serif" class="st1 st2" transform="matrix(1 0 0 1 325.302 216.137)">B5</text>
   <text x="-0.2" y="-23.5002" id="svg_50" font-size="10px" font-weight="bold" font-family="Liberation Sans,sans-serif" class="st1 st2" transform="matrix(1 0 0 1 287.506 216.137)">B6</text>
   <text x="-0.2" y="-23.5002" id="svg_51" font-size="10px" font-weight="bold" font-family="Liberation Sans,sans-serif" class="st1 st2" transform="matrix(1 0 0 1 249.73 216.137)">B7</text>
   <text x="-0.2" y="-23.5002" id="svg_52" font-size="10px" font-weight="bold" font-family="Liberation Sans,sans-serif" class="st1 st2" transform="matrix(1 0 0 1 211.915 216.175)">B8</text>
   <text x="-0.2" y="-23.5002" id="svg_53" font-size="10px" font-weight="bold" font-family="Liberation Sans,sans-serif" class="st1 st2" transform="matrix(1 0 0 1 174.12 216.137)">B9</text>
   <text x="-0.2" y="-23.5002" id="svg_54" font-size="10px" font-weight="bold" font-family="Liberation Sans,sans-serif" class="st1 st2" transform="matrix(1 0 0 1 133.544 216.137)">B10</text>
   <text x="-0.2" y="-23.5002" id="svg_55" font-size="10px" font-weight="bold" font-family="Liberation Sans,sans-serif" class="st1 st2" transform="matrix(1 0 0 1 96.0438 216.137)">B11</text>
  </g>
  <g id="svg_56">
   <text x="-0.2" y="-23.5002" id="svg_57" font-size="10px" font-weight="bold" font-family="Liberation Sans,sans-serif" class="st1 st2" transform="matrix(1 0 0 1 92.2937 189.227)">RX1+</text>
   <text x="-0.2" y="-23.5002" id="svg_58" font-size="10px" font-weight="bold" font-family="Liberation Sans,sans-serif" class="st1 st2" transform="matrix(1 0 0 1 130.07 189.227)">RX1−</text>
   <text x="-0.2" y="-23.5002" id="svg_59" font-size="10px" font-weight="bold" font-family="Liberation Sans,sans-serif" class="st1 st2" transform="matrix(1 0 0 1 166.62 189.227)">VBUS</text>
   <text x="-0.2" y="-23.5002" id="svg_60" font-size="10px" font-weight="bold" font-family="Liberation Sans,sans-serif" class="st1 st2" transform="matrix(1 0 0 1 204.97 189.265)">SBU2</text>
   <text x="-0.2" y="-23.5002" id="svg_61" font-size="10px" font-weight="bold" font-family="Liberation Sans,sans-serif" class="st1 st2" transform="matrix(1 0 0 1 249.59 189.208)">D−</text>
   <text x="-0.2" y="-23.5002" id="svg_62" font-size="10px" font-weight="bold" font-family="Liberation Sans,sans-serif" class="st1 st2" transform="matrix(1 0 0 1 287.367 189.227)">D+</text>
   <text x="-0.2" y="-23.5002" id="svg_63" font-size="10px" font-weight="bold" font-family="Liberation Sans,sans-serif" class="st1 st2" transform="matrix(1 0 0 1 321.69 189.227)">CC2</text>
   <text x="-0.2" y="-23.5002" id="svg_64" font-size="10px" font-weight="bold" font-family="Liberation Sans,sans-serif" class="st1 st2" transform="matrix(1 0 0 1 395.194 189.227)">TX2−</text>
   <text x="-0.2" y="-23.5002" id="svg_65" font-size="10px" font-weight="bold" font-family="Liberation Sans,sans-serif" class="st1 st2" transform="matrix(1 0 0 1 355.597 189.227)">VBUS</text>
   <text x="-0.2" y="-23.5002" id="svg_66" font-size="10px" font-weight="bold" font-family="Liberation Sans,sans-serif" class="st1 st2" transform="matrix(1 0 0 1 432.989 189.227)">TX2+</text>
   <text x="-0.2" y="-23.5002" id="svg_67" font-size="10px" font-weight="bold" font-family="Liberation Sans,sans-serif" class="st1 st2" transform="matrix(1 0 0 1 56.0151 189.227)">GND</text>
   <text x="-0.2" y="-23.5002" id="svg_68" font-size="10px" font-weight="bold" font-family="Liberation Sans,sans-serif" class="st1 st2" transform="matrix(1 0 0 1 471.763 189.227)">GND</text>
  </g>
  <g id="svg_69">
   <rect id="svg_70" stroke-miterlimit="10" stroke="#000000" fill="none" height="19" width="30.3" class="st3" y="152.9998" x="89.6"/>
   <rect id="svg_71" stroke-miterlimit="10" stroke="#000000" fill="none" height="19" width="30.3" class="st3" y="152.9998" x="127.3"/>
   <rect id="svg_72" stroke-miterlimit="10" stroke="#000000" fill="none" height="19" width="30.3" class="st3" y="152.9998" x="165.1"/>
   <rect id="svg_73" stroke-miterlimit="10" stroke="#000000" fill="none" height="19" width="30.3" class="st3" y="152.9998" x="202.9"/>
   <rect id="svg_74" stroke-miterlimit="10" stroke="#000000" fill="none" height="19" width="30.3" class="st3" y="152.8998" x="240.7"/>
   <rect id="svg_75" stroke-miterlimit="10" stroke="#000000" fill="none" height="19" width="30.3" class="st3" y="152.9998" x="278.5"/>
   <rect id="svg_76" stroke-miterlimit="10" stroke="#000000" fill="none" height="19" width="30.3" class="st3" y="152.9998" x="316.3"/>
   <rect id="svg_77" stroke-miterlimit="10" stroke="#000000" fill="none" height="19" width="30.3" class="st3" y="152.9998" x="391.9"/>
   <rect id="svg_78" stroke-miterlimit="10" stroke="#000000" fill="none" height="19" width="30.3" class="st3" y="152.9998" x="354.1"/>
   <rect id="svg_79" stroke-miterlimit="10" stroke="#000000" fill="none" height="19" width="30.3" class="st3" y="152.9998" x="429.7"/>
   <rect id="svg_80" stroke-miterlimit="10" stroke="#000000" fill="none" height="19" width="30.3" class="st3" y="152.9998" x="51.8"/>
   <rect id="svg_81" stroke-miterlimit="10" stroke="#000000" fill="none" height="19" width="30.3" class="st3" y="152.9998" x="467.5"/>
  </g>
  <g id="svg_82">
   <text x="-0.2" y="-23.5002" id="svg_83" font-size="10px" font-weight="bold" font-family="Liberation Sans,sans-serif" class="st1 st2" transform="matrix(1 0 0 1 130.07 64.5022)">TX1−</text>
   <text x="-0.2" y="-23.5002" id="svg_84" font-size="10px" font-weight="bold" font-family="Liberation Sans,sans-serif" class="st1 st2" transform="matrix(1 0 0 1 166.62 64.5022)">VBUS</text>
   <text x="-0.2" y="-23.5002" id="svg_85" font-size="10px" font-weight="bold" font-family="Liberation Sans,sans-serif" class="st1 st2" transform="matrix(1 0 0 1 208.324 64.5022)">CC1</text>
   <text x="-0.2" y="-23.5002" id="svg_86" font-size="10px" font-weight="bold" font-family="Liberation Sans,sans-serif" class="st1 st2" transform="matrix(1 0 0 1 249.572 64.5022)">D+</text>
   <text x="-0.2" y="-23.5002" id="svg_87" font-size="10px" font-weight="bold" font-family="Liberation Sans,sans-serif" class="st1 st2" transform="matrix(1 0 0 1 287.367 64.5022)">D−</text>
   <text x="-0.2" y="-23.5002" id="svg_88" font-size="10px" font-weight="bold" font-family="Liberation Sans,sans-serif" class="st1 st2" transform="matrix(1 0 0 1 318.355 64.5022)">SBU1</text>
   <text x="-0.2" y="-23.5002" id="svg_89" font-size="10px" font-weight="bold" font-family="Liberation Sans,sans-serif" class="st1 st2" transform="matrix(1 0 0 1 394.637 64.5022)">RX2−</text>
   <text x="-0.2" y="-23.5002" id="svg_90" font-size="10px" font-weight="bold" font-family="Liberation Sans,sans-serif" class="st1 st2" transform="matrix(1 0 0 1 355.597 64.5022)">VBUS</text>
   <text x="-0.2" y="-23.5002" id="svg_91" font-size="10px" font-weight="bold" font-family="Liberation Sans,sans-serif" class="st1 st2" transform="matrix(1 0 0 1 432.432 64.5022)">RX2+</text>
   <text x="-0.2" y="-23.5002" id="svg_92" font-size="10px" font-weight="bold" font-family="Liberation Sans,sans-serif" class="st1 st2" transform="matrix(1 0 0 1 92.8314 64.5022)">TX1+</text>
   <text x="-0.2" y="-23.5002" id="svg_93" font-size="10px" font-weight="bold" font-family="Liberation Sans,sans-serif" class="st1 st2" transform="matrix(1 0 0 1 56.0151 64.5022)">GND</text>
   <text x="-0.2" y="-23.5002" id="svg_94" font-size="10px" font-weight="bold" font-family="Liberation Sans,sans-serif" class="st1 st2" transform="matrix(1 0 0 1 471.763 64.5022)">GND</text>
   <text x="-0.2" y="-23.5002" id="svg_95" font-size="10px" font-weight="bold" font-family="Liberation Sans,sans-serif" class="st1 st2" transform="matrix(1 0 0 1 56.0151 64.5022)">GND</text>
  </g>
  <g id="svg_96">
   <rect id="svg_97" stroke-miterlimit="10" stroke="#000000" fill="none" height="19" width="30.3" class="st3" y="28.1998" x="127.3"/>
   <rect id="svg_98" stroke-miterlimit="10" stroke="#000000" fill="none" height="19" width="30.3" class="st3" y="28.1998" x="165.1"/>
   <rect id="svg_99" stroke-miterlimit="10" stroke="#000000" fill="none" height="19" width="30.3" class="st3" y="28.1998" x="203"/>
   <rect id="svg_100" stroke-miterlimit="10" stroke="#000000" fill="none" height="19" width="30.3" class="st3" y="28.1998" x="240.7"/>
   <rect id="svg_101" stroke-miterlimit="10" stroke="#000000" fill="none" height="19" width="30.3" class="st3" y="28.1998" x="278.5"/>
   <rect id="svg_102" stroke-miterlimit="10" stroke="#000000" fill="none" height="19" width="30.3" class="st3" y="28.1998" x="316.3"/>
   <rect id="svg_103" stroke-miterlimit="10" stroke="#000000" fill="none" height="19" width="30.3" class="st3" y="28.1998" x="391.9"/>
   <rect id="svg_104" stroke-miterlimit="10" stroke="#000000" fill="none" height="19" width="30.3" class="st3" y="28.1998" x="354.1"/>
   <rect id="svg_105" stroke-miterlimit="10" stroke="#000000" fill="none" height="19" width="30.3" class="st3" y="28.1998" x="429.7"/>
   <rect id="svg_106" stroke-miterlimit="10" stroke="#000000" fill="none" height="19" width="30.3" class="st3" y="28.1998" x="89.5"/>
   <rect id="svg_107" stroke-miterlimit="10" stroke="#000000" fill="none" height="19" width="30.3" class="st3" y="28.1998" x="51.8"/>
   <rect id="svg_108" stroke-miterlimit="10" stroke="#000000" fill="none" height="19" width="30.3" class="st3" y="28.1998" x="467.5"/>
  </g>
 </g>
</svg>